<mxfile host="Electron" modified="2025-05-10T01:33:12.579Z" agent="Mozilla/5.0 (Macintosh; Intel Mac OS X 10_15_7) AppleWebKit/537.36 (KHTML, like Gecko) draw.io/21.1.2 Chrome/106.0.5249.199 Electron/21.4.3 Safari/537.36" etag="yC60DxWn9OSbuLsLnetY" version="21.1.2" type="device">
  <diagram name="Page-1" id="68uzwSN3okepPZ7pz6pN">
    <mxGraphModel dx="1461" dy="965" grid="1" gridSize="10" guides="1" tooltips="1" connect="1" arrows="1" fold="1" page="1" pageScale="1" pageWidth="1100" pageHeight="850" math="0" shadow="0">
      <root>
        <mxCell id="0" />
        <mxCell id="1" parent="0" />
        <mxCell id="mxUgODkjY9jCBzV6E6Ki-197" value="" style="triangle;whiteSpace=wrap;html=1;strokeColor=#FFFFFF;fillColor=#000000;strokeWidth=4;direction=east;" vertex="1" parent="1">
          <mxGeometry x="617" y="483" width="20" height="20" as="geometry" />
        </mxCell>
        <mxCell id="mxUgODkjY9jCBzV6E6Ki-79" value="" style="rounded=1;whiteSpace=wrap;html=1;strokeColor=#E6E6E6;fillColor=#CCE5FF;strokeWidth=3;" vertex="1" parent="1">
          <mxGeometry x="792" y="203" width="160" height="350" as="geometry" />
        </mxCell>
        <mxCell id="mxUgODkjY9jCBzV6E6Ki-1" value="" style="whiteSpace=wrap;html=1;aspect=fixed;strokeWidth=2;strokeColor=#A9C4EB;" vertex="1" parent="1">
          <mxGeometry x="752" y="233" width="40" height="40" as="geometry" />
        </mxCell>
        <mxCell id="mxUgODkjY9jCBzV6E6Ki-2" value="" style="whiteSpace=wrap;html=1;aspect=fixed;strokeWidth=2;strokeColor=#A9C4EB;" vertex="1" parent="1">
          <mxGeometry x="712" y="233" width="40" height="40" as="geometry" />
        </mxCell>
        <mxCell id="mxUgODkjY9jCBzV6E6Ki-3" value="" style="whiteSpace=wrap;html=1;aspect=fixed;strokeWidth=2;strokeColor=#A9C4EB;fillColor=none;" vertex="1" parent="1">
          <mxGeometry x="792" y="233" width="40" height="40" as="geometry" />
        </mxCell>
        <mxCell id="mxUgODkjY9jCBzV6E6Ki-4" value="" style="whiteSpace=wrap;html=1;aspect=fixed;strokeWidth=2;strokeColor=#A9C4EB;fillColor=none;" vertex="1" parent="1">
          <mxGeometry x="832" y="233" width="40" height="40" as="geometry" />
        </mxCell>
        <mxCell id="mxUgODkjY9jCBzV6E6Ki-5" value="" style="whiteSpace=wrap;html=1;aspect=fixed;strokeWidth=2;strokeColor=#A9C4EB;fillColor=none;" vertex="1" parent="1">
          <mxGeometry x="872" y="233" width="40" height="40" as="geometry" />
        </mxCell>
        <mxCell id="mxUgODkjY9jCBzV6E6Ki-6" value="" style="whiteSpace=wrap;html=1;aspect=fixed;strokeWidth=2;strokeColor=#A9C4EB;fillColor=none;" vertex="1" parent="1">
          <mxGeometry x="912" y="233" width="40" height="40" as="geometry" />
        </mxCell>
        <mxCell id="mxUgODkjY9jCBzV6E6Ki-8" value="" style="whiteSpace=wrap;html=1;aspect=fixed;strokeWidth=2;strokeColor=#A9C4EB;" vertex="1" parent="1">
          <mxGeometry x="752" y="273" width="40" height="40" as="geometry" />
        </mxCell>
        <mxCell id="mxUgODkjY9jCBzV6E6Ki-9" value="" style="whiteSpace=wrap;html=1;aspect=fixed;strokeWidth=2;strokeColor=#A9C4EB;" vertex="1" parent="1">
          <mxGeometry x="712" y="273" width="40" height="40" as="geometry" />
        </mxCell>
        <mxCell id="mxUgODkjY9jCBzV6E6Ki-10" value="" style="whiteSpace=wrap;html=1;aspect=fixed;strokeWidth=2;strokeColor=#A9C4EB;fillColor=none;" vertex="1" parent="1">
          <mxGeometry x="792" y="273" width="40" height="40" as="geometry" />
        </mxCell>
        <mxCell id="mxUgODkjY9jCBzV6E6Ki-11" value="" style="whiteSpace=wrap;html=1;aspect=fixed;strokeWidth=2;strokeColor=#A9C4EB;fillColor=none;" vertex="1" parent="1">
          <mxGeometry x="832" y="273" width="40" height="40" as="geometry" />
        </mxCell>
        <mxCell id="mxUgODkjY9jCBzV6E6Ki-13" value="" style="whiteSpace=wrap;html=1;aspect=fixed;strokeWidth=2;strokeColor=#A9C4EB;fillColor=none;" vertex="1" parent="1">
          <mxGeometry x="912" y="273" width="40" height="40" as="geometry" />
        </mxCell>
        <mxCell id="mxUgODkjY9jCBzV6E6Ki-14" value="" style="whiteSpace=wrap;html=1;aspect=fixed;strokeWidth=2;strokeColor=#A9C4EB;" vertex="1" parent="1">
          <mxGeometry x="952" y="273" width="40" height="40" as="geometry" />
        </mxCell>
        <mxCell id="mxUgODkjY9jCBzV6E6Ki-15" value="" style="whiteSpace=wrap;html=1;aspect=fixed;strokeWidth=2;strokeColor=#A9C4EB;" vertex="1" parent="1">
          <mxGeometry x="752" y="313" width="40" height="40" as="geometry" />
        </mxCell>
        <mxCell id="mxUgODkjY9jCBzV6E6Ki-16" value="" style="whiteSpace=wrap;html=1;aspect=fixed;strokeWidth=2;strokeColor=#A9C4EB;" vertex="1" parent="1">
          <mxGeometry x="712" y="313" width="40" height="40" as="geometry" />
        </mxCell>
        <mxCell id="mxUgODkjY9jCBzV6E6Ki-18" value="" style="whiteSpace=wrap;html=1;aspect=fixed;strokeWidth=2;strokeColor=#A9C4EB;fillColor=none;" vertex="1" parent="1">
          <mxGeometry x="832" y="313" width="40" height="40" as="geometry" />
        </mxCell>
        <mxCell id="mxUgODkjY9jCBzV6E6Ki-19" value="" style="whiteSpace=wrap;html=1;aspect=fixed;strokeWidth=2;strokeColor=#A9C4EB;fillColor=none;" vertex="1" parent="1">
          <mxGeometry x="872" y="313" width="40" height="40" as="geometry" />
        </mxCell>
        <mxCell id="mxUgODkjY9jCBzV6E6Ki-20" value="" style="whiteSpace=wrap;html=1;aspect=fixed;strokeWidth=2;strokeColor=#A9C4EB;fillColor=none;" vertex="1" parent="1">
          <mxGeometry x="912" y="313" width="40" height="40" as="geometry" />
        </mxCell>
        <mxCell id="mxUgODkjY9jCBzV6E6Ki-21" value="" style="whiteSpace=wrap;html=1;aspect=fixed;strokeWidth=2;strokeColor=#A9C4EB;" vertex="1" parent="1">
          <mxGeometry x="952" y="313" width="40" height="40" as="geometry" />
        </mxCell>
        <mxCell id="mxUgODkjY9jCBzV6E6Ki-22" value="" style="whiteSpace=wrap;html=1;aspect=fixed;strokeWidth=2;strokeColor=#A9C4EB;" vertex="1" parent="1">
          <mxGeometry x="752" y="353" width="40" height="40" as="geometry" />
        </mxCell>
        <mxCell id="mxUgODkjY9jCBzV6E6Ki-23" value="" style="whiteSpace=wrap;html=1;aspect=fixed;strokeWidth=2;strokeColor=#A9C4EB;" vertex="1" parent="1">
          <mxGeometry x="712" y="353" width="40" height="40" as="geometry" />
        </mxCell>
        <mxCell id="mxUgODkjY9jCBzV6E6Ki-24" value="" style="whiteSpace=wrap;html=1;aspect=fixed;strokeWidth=2;strokeColor=#A9C4EB;fillColor=none;" vertex="1" parent="1">
          <mxGeometry x="792" y="353" width="40" height="40" as="geometry" />
        </mxCell>
        <mxCell id="mxUgODkjY9jCBzV6E6Ki-26" value="" style="whiteSpace=wrap;html=1;aspect=fixed;strokeWidth=2;strokeColor=#A9C4EB;fillColor=none;" vertex="1" parent="1">
          <mxGeometry x="872" y="353" width="40" height="40" as="geometry" />
        </mxCell>
        <mxCell id="mxUgODkjY9jCBzV6E6Ki-27" value="" style="whiteSpace=wrap;html=1;aspect=fixed;strokeWidth=2;strokeColor=#A9C4EB;fillColor=none;" vertex="1" parent="1">
          <mxGeometry x="912" y="353" width="40" height="40" as="geometry" />
        </mxCell>
        <mxCell id="mxUgODkjY9jCBzV6E6Ki-28" value="" style="whiteSpace=wrap;html=1;aspect=fixed;strokeWidth=2;strokeColor=#A9C4EB;" vertex="1" parent="1">
          <mxGeometry x="952" y="353" width="40" height="40" as="geometry" />
        </mxCell>
        <mxCell id="mxUgODkjY9jCBzV6E6Ki-29" value="" style="whiteSpace=wrap;html=1;aspect=fixed;strokeWidth=2;strokeColor=#A9C4EB;" vertex="1" parent="1">
          <mxGeometry x="752" y="393" width="40" height="40" as="geometry" />
        </mxCell>
        <mxCell id="mxUgODkjY9jCBzV6E6Ki-30" value="" style="whiteSpace=wrap;html=1;aspect=fixed;strokeWidth=2;strokeColor=#A9C4EB;" vertex="1" parent="1">
          <mxGeometry x="712" y="393" width="40" height="40" as="geometry" />
        </mxCell>
        <mxCell id="mxUgODkjY9jCBzV6E6Ki-31" value="" style="whiteSpace=wrap;html=1;aspect=fixed;strokeWidth=2;strokeColor=#A9C4EB;fillColor=none;" vertex="1" parent="1">
          <mxGeometry x="792" y="393" width="40" height="40" as="geometry" />
        </mxCell>
        <mxCell id="mxUgODkjY9jCBzV6E6Ki-32" value="" style="whiteSpace=wrap;html=1;aspect=fixed;strokeWidth=2;strokeColor=#A9C4EB;fillColor=none;" vertex="1" parent="1">
          <mxGeometry x="832" y="393" width="40" height="40" as="geometry" />
        </mxCell>
        <mxCell id="mxUgODkjY9jCBzV6E6Ki-33" value="" style="whiteSpace=wrap;html=1;aspect=fixed;strokeWidth=2;strokeColor=#A9C4EB;fillColor=none;" vertex="1" parent="1">
          <mxGeometry x="872" y="393" width="40" height="40" as="geometry" />
        </mxCell>
        <mxCell id="mxUgODkjY9jCBzV6E6Ki-35" value="" style="whiteSpace=wrap;html=1;aspect=fixed;strokeWidth=2;strokeColor=#A9C4EB;" vertex="1" parent="1">
          <mxGeometry x="952" y="393" width="40" height="40" as="geometry" />
        </mxCell>
        <mxCell id="mxUgODkjY9jCBzV6E6Ki-36" value="" style="whiteSpace=wrap;html=1;aspect=fixed;strokeWidth=2;strokeColor=#A9C4EB;" vertex="1" parent="1">
          <mxGeometry x="752" y="433" width="40" height="40" as="geometry" />
        </mxCell>
        <mxCell id="mxUgODkjY9jCBzV6E6Ki-37" value="" style="whiteSpace=wrap;html=1;aspect=fixed;fillColor=#B3B3B3;strokeWidth=2;strokeColor=#A9C4EB;" vertex="1" parent="1">
          <mxGeometry x="712" y="433" width="40" height="40" as="geometry" />
        </mxCell>
        <mxCell id="mxUgODkjY9jCBzV6E6Ki-38" value="" style="whiteSpace=wrap;html=1;aspect=fixed;strokeWidth=2;strokeColor=#A9C4EB;fillColor=none;" vertex="1" parent="1">
          <mxGeometry x="792" y="433" width="40" height="40" as="geometry" />
        </mxCell>
        <mxCell id="mxUgODkjY9jCBzV6E6Ki-39" value="" style="whiteSpace=wrap;html=1;aspect=fixed;strokeWidth=2;strokeColor=#A9C4EB;fillColor=none;" vertex="1" parent="1">
          <mxGeometry x="832" y="433" width="40" height="40" as="geometry" />
        </mxCell>
        <mxCell id="mxUgODkjY9jCBzV6E6Ki-40" value="" style="whiteSpace=wrap;html=1;aspect=fixed;strokeWidth=2;strokeColor=#A9C4EB;fillColor=none;" vertex="1" parent="1">
          <mxGeometry x="872" y="433" width="40" height="40" as="geometry" />
        </mxCell>
        <mxCell id="mxUgODkjY9jCBzV6E6Ki-41" value="" style="whiteSpace=wrap;html=1;aspect=fixed;strokeWidth=2;strokeColor=#A9C4EB;fillColor=none;" vertex="1" parent="1">
          <mxGeometry x="912" y="433" width="40" height="40" as="geometry" />
        </mxCell>
        <mxCell id="mxUgODkjY9jCBzV6E6Ki-42" value="" style="whiteSpace=wrap;html=1;aspect=fixed;strokeWidth=2;strokeColor=#A9C4EB;" vertex="1" parent="1">
          <mxGeometry x="952" y="433" width="40" height="40" as="geometry" />
        </mxCell>
        <mxCell id="mxUgODkjY9jCBzV6E6Ki-44" value="" style="whiteSpace=wrap;html=1;aspect=fixed;strokeWidth=2;strokeColor=#A9C4EB;" vertex="1" parent="1">
          <mxGeometry x="712" y="473" width="40" height="40" as="geometry" />
        </mxCell>
        <mxCell id="mxUgODkjY9jCBzV6E6Ki-45" value="" style="whiteSpace=wrap;html=1;aspect=fixed;strokeWidth=2;strokeColor=#A9C4EB;fillColor=none;" vertex="1" parent="1">
          <mxGeometry x="792" y="473" width="40" height="40" as="geometry" />
        </mxCell>
        <mxCell id="mxUgODkjY9jCBzV6E6Ki-46" value="" style="whiteSpace=wrap;html=1;aspect=fixed;strokeWidth=2;strokeColor=#A9C4EB;fillColor=none;" vertex="1" parent="1">
          <mxGeometry x="832" y="473" width="40" height="40" as="geometry" />
        </mxCell>
        <mxCell id="mxUgODkjY9jCBzV6E6Ki-47" value="" style="whiteSpace=wrap;html=1;aspect=fixed;strokeWidth=2;strokeColor=#A9C4EB;fillColor=none;" vertex="1" parent="1">
          <mxGeometry x="872" y="473" width="40" height="40" as="geometry" />
        </mxCell>
        <mxCell id="mxUgODkjY9jCBzV6E6Ki-48" value="" style="whiteSpace=wrap;html=1;aspect=fixed;strokeWidth=2;strokeColor=#A9C4EB;fillColor=none;" vertex="1" parent="1">
          <mxGeometry x="912" y="473" width="40" height="40" as="geometry" />
        </mxCell>
        <mxCell id="mxUgODkjY9jCBzV6E6Ki-49" value="" style="whiteSpace=wrap;html=1;aspect=fixed;strokeWidth=2;strokeColor=#A9C4EB;" vertex="1" parent="1">
          <mxGeometry x="952" y="473" width="40" height="40" as="geometry" />
        </mxCell>
        <mxCell id="mxUgODkjY9jCBzV6E6Ki-50" value="" style="whiteSpace=wrap;html=1;aspect=fixed;fillColor=#B3B3B3;strokeWidth=2;strokeColor=#A9C4EB;" vertex="1" parent="1">
          <mxGeometry x="752" y="473" width="40" height="40" as="geometry" />
        </mxCell>
        <mxCell id="mxUgODkjY9jCBzV6E6Ki-52" value="" style="whiteSpace=wrap;html=1;aspect=fixed;fillColor=#808080;strokeWidth=2;strokeColor=#A9C4EB;" vertex="1" parent="1">
          <mxGeometry x="792" y="313" width="40" height="40" as="geometry" />
        </mxCell>
        <mxCell id="mxUgODkjY9jCBzV6E6Ki-53" value="" style="whiteSpace=wrap;html=1;aspect=fixed;fillColor=#808080;strokeWidth=2;strokeColor=#A9C4EB;" vertex="1" parent="1">
          <mxGeometry x="832" y="353" width="40" height="40" as="geometry" />
        </mxCell>
        <mxCell id="mxUgODkjY9jCBzV6E6Ki-54" value="" style="whiteSpace=wrap;html=1;aspect=fixed;fillColor=#808080;strokeWidth=2;strokeColor=#A9C4EB;" vertex="1" parent="1">
          <mxGeometry x="872" y="273" width="40" height="40" as="geometry" />
        </mxCell>
        <mxCell id="mxUgODkjY9jCBzV6E6Ki-55" value="" style="whiteSpace=wrap;html=1;aspect=fixed;fillColor=#808080;strokeWidth=2;strokeColor=#A9C4EB;" vertex="1" parent="1">
          <mxGeometry x="912" y="393" width="40" height="40" as="geometry" />
        </mxCell>
        <mxCell id="mxUgODkjY9jCBzV6E6Ki-56" value="" style="whiteSpace=wrap;html=1;aspect=fixed;fillColor=#B3B3B3;strokeWidth=2;strokeColor=#A9C4EB;" vertex="1" parent="1">
          <mxGeometry x="952" y="233" width="40" height="40" as="geometry" />
        </mxCell>
        <mxCell id="mxUgODkjY9jCBzV6E6Ki-57" value="" style="endArrow=open;html=1;rounded=0;strokeWidth=3;endFill=0;strokeColor=#FF0000;endSize=10;" edge="1" parent="1">
          <mxGeometry width="50" height="50" relative="1" as="geometry">
            <mxPoint x="692" y="513" as="sourcePoint" />
            <mxPoint x="1012" y="513" as="targetPoint" />
          </mxGeometry>
        </mxCell>
        <mxCell id="mxUgODkjY9jCBzV6E6Ki-58" value="" style="endArrow=open;html=1;rounded=0;strokeWidth=3;endFill=0;strokeColor=#FF0000;endSize=10;" edge="1" parent="1">
          <mxGeometry width="50" height="50" relative="1" as="geometry">
            <mxPoint x="712" y="533" as="sourcePoint" />
            <mxPoint x="712" y="213" as="targetPoint" />
          </mxGeometry>
        </mxCell>
        <mxCell id="mxUgODkjY9jCBzV6E6Ki-59" value="index" style="text;html=1;strokeColor=none;fillColor=none;align=center;verticalAlign=middle;whiteSpace=wrap;rounded=0;fontFamily=Times New Roman;fontSize=24;fontColor=#FF0000;" vertex="1" parent="1">
          <mxGeometry x="1017" y="495" width="60" height="30" as="geometry" />
        </mxCell>
        <mxCell id="mxUgODkjY9jCBzV6E6Ki-60" value="value" style="text;html=1;strokeColor=none;fillColor=none;align=center;verticalAlign=middle;whiteSpace=wrap;rounded=0;fontFamily=Times New Roman;fontSize=24;fontColor=#FF0000;direction=west;" vertex="1" parent="1">
          <mxGeometry x="682" y="180" width="60" height="30" as="geometry" />
        </mxCell>
        <mxCell id="mxUgODkjY9jCBzV6E6Ki-61" value="0" style="text;html=1;strokeColor=none;fillColor=none;align=center;verticalAlign=middle;whiteSpace=wrap;rounded=0;fontFamily=Times New Roman;fontSize=24;fontColor=#FF0000;" vertex="1" parent="1">
          <mxGeometry x="722" y="513" width="20" height="30" as="geometry" />
        </mxCell>
        <mxCell id="mxUgODkjY9jCBzV6E6Ki-62" value="1" style="text;html=1;strokeColor=none;fillColor=none;align=center;verticalAlign=middle;whiteSpace=wrap;rounded=0;fontFamily=Times New Roman;fontSize=24;fontColor=#FF0000;" vertex="1" parent="1">
          <mxGeometry x="762" y="513" width="20" height="30" as="geometry" />
        </mxCell>
        <mxCell id="mxUgODkjY9jCBzV6E6Ki-63" value="2" style="text;html=1;strokeColor=none;fillColor=none;align=center;verticalAlign=middle;whiteSpace=wrap;rounded=0;fontFamily=Times New Roman;fontSize=24;fontColor=#FF0000;" vertex="1" parent="1">
          <mxGeometry x="802" y="513" width="20" height="30" as="geometry" />
        </mxCell>
        <mxCell id="mxUgODkjY9jCBzV6E6Ki-64" value="3" style="text;html=1;strokeColor=none;fillColor=none;align=center;verticalAlign=middle;whiteSpace=wrap;rounded=0;fontFamily=Times New Roman;fontSize=24;fontColor=#FF0000;" vertex="1" parent="1">
          <mxGeometry x="842" y="513" width="20" height="30" as="geometry" />
        </mxCell>
        <mxCell id="mxUgODkjY9jCBzV6E6Ki-65" value="4" style="text;html=1;strokeColor=none;fillColor=none;align=center;verticalAlign=middle;whiteSpace=wrap;rounded=0;fontFamily=Times New Roman;fontSize=24;fontColor=#FF0000;" vertex="1" parent="1">
          <mxGeometry x="882" y="513" width="20" height="30" as="geometry" />
        </mxCell>
        <mxCell id="mxUgODkjY9jCBzV6E6Ki-66" value="5" style="text;html=1;strokeColor=none;fillColor=none;align=center;verticalAlign=middle;whiteSpace=wrap;rounded=0;fontFamily=Times New Roman;fontSize=24;fontColor=#FF0000;" vertex="1" parent="1">
          <mxGeometry x="922" y="513" width="20" height="30" as="geometry" />
        </mxCell>
        <mxCell id="mxUgODkjY9jCBzV6E6Ki-67" value="6" style="text;html=1;strokeColor=none;fillColor=none;align=center;verticalAlign=middle;whiteSpace=wrap;rounded=0;fontFamily=Times New Roman;fontSize=24;fontColor=#FF0000;" vertex="1" parent="1">
          <mxGeometry x="962" y="513" width="20" height="30" as="geometry" />
        </mxCell>
        <mxCell id="mxUgODkjY9jCBzV6E6Ki-68" value="0" style="text;html=1;strokeColor=none;fillColor=none;align=center;verticalAlign=middle;whiteSpace=wrap;rounded=0;fontFamily=Times New Roman;fontSize=24;fontColor=#FF0000;" vertex="1" parent="1">
          <mxGeometry x="692" y="478" width="20" height="30" as="geometry" />
        </mxCell>
        <mxCell id="mxUgODkjY9jCBzV6E6Ki-69" value="1" style="text;html=1;strokeColor=none;fillColor=none;align=center;verticalAlign=middle;whiteSpace=wrap;rounded=0;fontFamily=Times New Roman;fontSize=24;fontColor=#FF0000;" vertex="1" parent="1">
          <mxGeometry x="692" y="438" width="20" height="30" as="geometry" />
        </mxCell>
        <mxCell id="mxUgODkjY9jCBzV6E6Ki-70" value="2" style="text;html=1;strokeColor=none;fillColor=none;align=center;verticalAlign=middle;whiteSpace=wrap;rounded=0;fontFamily=Times New Roman;fontSize=24;fontColor=#FF0000;" vertex="1" parent="1">
          <mxGeometry x="692" y="398" width="20" height="30" as="geometry" />
        </mxCell>
        <mxCell id="mxUgODkjY9jCBzV6E6Ki-71" value="3" style="text;html=1;strokeColor=none;fillColor=none;align=center;verticalAlign=middle;whiteSpace=wrap;rounded=0;fontFamily=Times New Roman;fontSize=24;fontColor=#FF0000;" vertex="1" parent="1">
          <mxGeometry x="692" y="358" width="20" height="30" as="geometry" />
        </mxCell>
        <mxCell id="mxUgODkjY9jCBzV6E6Ki-72" value="4" style="text;html=1;strokeColor=none;fillColor=none;align=center;verticalAlign=middle;whiteSpace=wrap;rounded=0;fontFamily=Times New Roman;fontSize=24;fontColor=#FF0000;" vertex="1" parent="1">
          <mxGeometry x="692" y="318" width="20" height="30" as="geometry" />
        </mxCell>
        <mxCell id="mxUgODkjY9jCBzV6E6Ki-73" value="5" style="text;html=1;strokeColor=none;fillColor=none;align=center;verticalAlign=middle;whiteSpace=wrap;rounded=0;fontFamily=Times New Roman;fontSize=24;fontColor=#FF0000;" vertex="1" parent="1">
          <mxGeometry x="692" y="278" width="20" height="30" as="geometry" />
        </mxCell>
        <mxCell id="mxUgODkjY9jCBzV6E6Ki-74" value="6" style="text;html=1;strokeColor=none;fillColor=none;align=center;verticalAlign=middle;whiteSpace=wrap;rounded=0;fontFamily=Times New Roman;fontSize=24;fontColor=#FF0000;" vertex="1" parent="1">
          <mxGeometry x="692" y="238" width="20" height="30" as="geometry" />
        </mxCell>
        <mxCell id="mxUgODkjY9jCBzV6E6Ki-76" value="" style="endArrow=none;dashed=1;html=1;rounded=0;strokeColor=#0000FF;strokeWidth=3;endSize=6;" edge="1" parent="1">
          <mxGeometry width="50" height="50" relative="1" as="geometry">
            <mxPoint x="792" y="553" as="sourcePoint" />
            <mxPoint x="792" y="193" as="targetPoint" />
          </mxGeometry>
        </mxCell>
        <mxCell id="mxUgODkjY9jCBzV6E6Ki-77" value="" style="endArrow=none;dashed=1;html=1;rounded=0;strokeColor=#0000FF;strokeWidth=3;endSize=6;" edge="1" parent="1">
          <mxGeometry width="50" height="50" relative="1" as="geometry">
            <mxPoint x="951" y="553" as="sourcePoint" />
            <mxPoint x="951" y="193" as="targetPoint" />
          </mxGeometry>
        </mxCell>
        <mxCell id="mxUgODkjY9jCBzV6E6Ki-80" value="" style="triangle;whiteSpace=wrap;html=1;strokeColor=#FFFFFF;fillColor=#FF0000;strokeWidth=4;" vertex="1" parent="1">
          <mxGeometry x="672" y="283" width="20" height="20" as="geometry" />
        </mxCell>
        <mxCell id="mxUgODkjY9jCBzV6E6Ki-84" value="" style="triangle;whiteSpace=wrap;html=1;strokeColor=#FFFFFF;fillColor=#0000FF;strokeWidth=4;direction=south;flipV=1;fontColor=none;noLabel=1;" vertex="1" parent="1">
          <mxGeometry x="962" y="543" width="20" height="20" as="geometry" />
        </mxCell>
        <mxCell id="mxUgODkjY9jCBzV6E6Ki-86" value="" style="triangle;whiteSpace=wrap;html=1;strokeColor=#FFFFFF;fillColor=#0000FF;strokeWidth=4;direction=south;flipV=1;fontColor=none;noLabel=1;" vertex="1" parent="1">
          <mxGeometry x="802" y="543" width="20" height="20" as="geometry" />
        </mxCell>
        <mxCell id="mxUgODkjY9jCBzV6E6Ki-89" value="" style="triangle;whiteSpace=wrap;html=1;strokeColor=#FFFFFF;fillColor=#FF0000;strokeWidth=4;direction=south;flipV=1;fontColor=none;noLabel=1;" vertex="1" parent="1">
          <mxGeometry x="882" y="543" width="20" height="20" as="geometry" />
        </mxCell>
        <mxCell id="mxUgODkjY9jCBzV6E6Ki-90" value="value&lt;br&gt;shift" style="text;html=1;strokeColor=none;fillColor=none;align=center;verticalAlign=middle;whiteSpace=wrap;rounded=0;fontFamily=Times New Roman;fontSize=18;fontColor=#FF0000;" vertex="1" parent="1">
          <mxGeometry x="617" y="278" width="51" height="30" as="geometry" />
        </mxCell>
        <mxCell id="mxUgODkjY9jCBzV6E6Ki-91" value="index&lt;br&gt;shift" style="text;html=1;strokeColor=none;fillColor=none;align=center;verticalAlign=middle;whiteSpace=wrap;rounded=0;fontFamily=Times New Roman;fontSize=18;fontColor=#FF0000;" vertex="1" parent="1">
          <mxGeometry x="871" y="569" width="45" height="30" as="geometry" />
        </mxCell>
        <mxCell id="mxUgODkjY9jCBzV6E6Ki-93" value="start&lt;br&gt;index" style="text;html=1;strokeColor=none;fillColor=none;align=center;verticalAlign=middle;whiteSpace=wrap;rounded=0;fontFamily=Times New Roman;fontSize=18;fontColor=#0000FF;" vertex="1" parent="1">
          <mxGeometry x="792" y="570" width="40" height="30" as="geometry" />
        </mxCell>
        <mxCell id="mxUgODkjY9jCBzV6E6Ki-94" value="end&lt;br&gt;index" style="text;html=1;strokeColor=none;fillColor=none;align=center;verticalAlign=middle;whiteSpace=wrap;rounded=0;fontFamily=Times New Roman;fontSize=18;fontColor=#0000FF;" vertex="1" parent="1">
          <mxGeometry x="952" y="570" width="40" height="30" as="geometry" />
        </mxCell>
        <mxCell id="mxUgODkjY9jCBzV6E6Ki-96" value="" style="whiteSpace=wrap;html=1;aspect=fixed;strokeWidth=2;strokeColor=#A9C4EB;" vertex="1" parent="1">
          <mxGeometry x="190" y="243" width="40" height="40" as="geometry" />
        </mxCell>
        <mxCell id="mxUgODkjY9jCBzV6E6Ki-97" value="" style="whiteSpace=wrap;html=1;aspect=fixed;strokeWidth=2;strokeColor=#A9C4EB;" vertex="1" parent="1">
          <mxGeometry x="150" y="243" width="40" height="40" as="geometry" />
        </mxCell>
        <mxCell id="mxUgODkjY9jCBzV6E6Ki-98" value="" style="whiteSpace=wrap;html=1;aspect=fixed;strokeWidth=2;strokeColor=#A9C4EB;fillColor=none;" vertex="1" parent="1">
          <mxGeometry x="230" y="243" width="40" height="40" as="geometry" />
        </mxCell>
        <mxCell id="mxUgODkjY9jCBzV6E6Ki-99" value="" style="whiteSpace=wrap;html=1;aspect=fixed;strokeWidth=2;strokeColor=#A9C4EB;fillColor=none;" vertex="1" parent="1">
          <mxGeometry x="270" y="243" width="40" height="40" as="geometry" />
        </mxCell>
        <mxCell id="mxUgODkjY9jCBzV6E6Ki-100" value="" style="whiteSpace=wrap;html=1;aspect=fixed;strokeWidth=2;strokeColor=#A9C4EB;fillColor=none;" vertex="1" parent="1">
          <mxGeometry x="310" y="243" width="40" height="40" as="geometry" />
        </mxCell>
        <mxCell id="mxUgODkjY9jCBzV6E6Ki-101" value="" style="whiteSpace=wrap;html=1;aspect=fixed;strokeWidth=2;strokeColor=#A9C4EB;fillColor=none;" vertex="1" parent="1">
          <mxGeometry x="350" y="243" width="40" height="40" as="geometry" />
        </mxCell>
        <mxCell id="mxUgODkjY9jCBzV6E6Ki-102" value="" style="whiteSpace=wrap;html=1;aspect=fixed;strokeWidth=2;strokeColor=#A9C4EB;" vertex="1" parent="1">
          <mxGeometry x="190" y="283" width="40" height="40" as="geometry" />
        </mxCell>
        <mxCell id="mxUgODkjY9jCBzV6E6Ki-103" value="" style="whiteSpace=wrap;html=1;aspect=fixed;strokeWidth=2;strokeColor=#A9C4EB;" vertex="1" parent="1">
          <mxGeometry x="150" y="283" width="40" height="40" as="geometry" />
        </mxCell>
        <mxCell id="mxUgODkjY9jCBzV6E6Ki-104" value="" style="whiteSpace=wrap;html=1;aspect=fixed;strokeWidth=2;strokeColor=#A9C4EB;fillColor=none;" vertex="1" parent="1">
          <mxGeometry x="230" y="283" width="40" height="40" as="geometry" />
        </mxCell>
        <mxCell id="mxUgODkjY9jCBzV6E6Ki-105" value="" style="whiteSpace=wrap;html=1;aspect=fixed;strokeWidth=2;strokeColor=#A9C4EB;fillColor=none;" vertex="1" parent="1">
          <mxGeometry x="270" y="283" width="40" height="40" as="geometry" />
        </mxCell>
        <mxCell id="mxUgODkjY9jCBzV6E6Ki-106" value="" style="whiteSpace=wrap;html=1;aspect=fixed;strokeWidth=2;strokeColor=#A9C4EB;fillColor=none;" vertex="1" parent="1">
          <mxGeometry x="350" y="283" width="40" height="40" as="geometry" />
        </mxCell>
        <mxCell id="mxUgODkjY9jCBzV6E6Ki-107" value="" style="whiteSpace=wrap;html=1;aspect=fixed;strokeWidth=2;strokeColor=#A9C4EB;" vertex="1" parent="1">
          <mxGeometry x="390" y="283" width="40" height="40" as="geometry" />
        </mxCell>
        <mxCell id="mxUgODkjY9jCBzV6E6Ki-108" value="" style="whiteSpace=wrap;html=1;aspect=fixed;strokeWidth=2;strokeColor=#A9C4EB;" vertex="1" parent="1">
          <mxGeometry x="190" y="323" width="40" height="40" as="geometry" />
        </mxCell>
        <mxCell id="mxUgODkjY9jCBzV6E6Ki-109" value="" style="whiteSpace=wrap;html=1;aspect=fixed;strokeWidth=2;strokeColor=#A9C4EB;" vertex="1" parent="1">
          <mxGeometry x="150" y="323" width="40" height="40" as="geometry" />
        </mxCell>
        <mxCell id="mxUgODkjY9jCBzV6E6Ki-110" value="" style="whiteSpace=wrap;html=1;aspect=fixed;strokeWidth=2;strokeColor=#A9C4EB;fillColor=none;" vertex="1" parent="1">
          <mxGeometry x="270" y="323" width="40" height="40" as="geometry" />
        </mxCell>
        <mxCell id="mxUgODkjY9jCBzV6E6Ki-111" value="" style="whiteSpace=wrap;html=1;aspect=fixed;strokeWidth=2;strokeColor=#A9C4EB;fillColor=none;" vertex="1" parent="1">
          <mxGeometry x="310" y="323" width="40" height="40" as="geometry" />
        </mxCell>
        <mxCell id="mxUgODkjY9jCBzV6E6Ki-112" value="" style="whiteSpace=wrap;html=1;aspect=fixed;strokeWidth=2;strokeColor=#A9C4EB;fillColor=none;" vertex="1" parent="1">
          <mxGeometry x="350" y="323" width="40" height="40" as="geometry" />
        </mxCell>
        <mxCell id="mxUgODkjY9jCBzV6E6Ki-113" value="" style="whiteSpace=wrap;html=1;aspect=fixed;strokeWidth=2;strokeColor=#A9C4EB;" vertex="1" parent="1">
          <mxGeometry x="390" y="323" width="40" height="40" as="geometry" />
        </mxCell>
        <mxCell id="mxUgODkjY9jCBzV6E6Ki-114" value="" style="whiteSpace=wrap;html=1;aspect=fixed;strokeWidth=2;strokeColor=#A9C4EB;" vertex="1" parent="1">
          <mxGeometry x="190" y="363" width="40" height="40" as="geometry" />
        </mxCell>
        <mxCell id="mxUgODkjY9jCBzV6E6Ki-115" value="" style="whiteSpace=wrap;html=1;aspect=fixed;strokeWidth=2;strokeColor=#A9C4EB;" vertex="1" parent="1">
          <mxGeometry x="150" y="363" width="40" height="40" as="geometry" />
        </mxCell>
        <mxCell id="mxUgODkjY9jCBzV6E6Ki-116" value="" style="whiteSpace=wrap;html=1;aspect=fixed;strokeWidth=2;strokeColor=#A9C4EB;fillColor=none;" vertex="1" parent="1">
          <mxGeometry x="230" y="363" width="40" height="40" as="geometry" />
        </mxCell>
        <mxCell id="mxUgODkjY9jCBzV6E6Ki-117" value="" style="whiteSpace=wrap;html=1;aspect=fixed;strokeWidth=2;strokeColor=#A9C4EB;fillColor=none;" vertex="1" parent="1">
          <mxGeometry x="310" y="363" width="40" height="40" as="geometry" />
        </mxCell>
        <mxCell id="mxUgODkjY9jCBzV6E6Ki-118" value="" style="whiteSpace=wrap;html=1;aspect=fixed;strokeWidth=2;strokeColor=#A9C4EB;fillColor=none;" vertex="1" parent="1">
          <mxGeometry x="350" y="363" width="40" height="40" as="geometry" />
        </mxCell>
        <mxCell id="mxUgODkjY9jCBzV6E6Ki-119" value="" style="whiteSpace=wrap;html=1;aspect=fixed;strokeWidth=2;strokeColor=#A9C4EB;" vertex="1" parent="1">
          <mxGeometry x="390" y="363" width="40" height="40" as="geometry" />
        </mxCell>
        <mxCell id="mxUgODkjY9jCBzV6E6Ki-120" value="" style="whiteSpace=wrap;html=1;aspect=fixed;strokeWidth=2;strokeColor=#A9C4EB;" vertex="1" parent="1">
          <mxGeometry x="190" y="403" width="40" height="40" as="geometry" />
        </mxCell>
        <mxCell id="mxUgODkjY9jCBzV6E6Ki-121" value="" style="whiteSpace=wrap;html=1;aspect=fixed;strokeWidth=2;strokeColor=#A9C4EB;" vertex="1" parent="1">
          <mxGeometry x="150" y="403" width="40" height="40" as="geometry" />
        </mxCell>
        <mxCell id="mxUgODkjY9jCBzV6E6Ki-122" value="" style="whiteSpace=wrap;html=1;aspect=fixed;strokeWidth=2;strokeColor=#A9C4EB;fillColor=none;" vertex="1" parent="1">
          <mxGeometry x="230" y="403" width="40" height="40" as="geometry" />
        </mxCell>
        <mxCell id="mxUgODkjY9jCBzV6E6Ki-123" value="" style="whiteSpace=wrap;html=1;aspect=fixed;strokeWidth=2;strokeColor=#A9C4EB;fillColor=none;" vertex="1" parent="1">
          <mxGeometry x="270" y="403" width="40" height="40" as="geometry" />
        </mxCell>
        <mxCell id="mxUgODkjY9jCBzV6E6Ki-124" value="" style="whiteSpace=wrap;html=1;aspect=fixed;strokeWidth=2;strokeColor=#A9C4EB;fillColor=none;" vertex="1" parent="1">
          <mxGeometry x="310" y="403" width="40" height="40" as="geometry" />
        </mxCell>
        <mxCell id="mxUgODkjY9jCBzV6E6Ki-125" value="" style="whiteSpace=wrap;html=1;aspect=fixed;strokeWidth=2;strokeColor=#A9C4EB;" vertex="1" parent="1">
          <mxGeometry x="390" y="403" width="40" height="40" as="geometry" />
        </mxCell>
        <mxCell id="mxUgODkjY9jCBzV6E6Ki-126" value="" style="whiteSpace=wrap;html=1;aspect=fixed;strokeWidth=2;strokeColor=#A9C4EB;" vertex="1" parent="1">
          <mxGeometry x="190" y="443" width="40" height="40" as="geometry" />
        </mxCell>
        <mxCell id="mxUgODkjY9jCBzV6E6Ki-127" value="" style="whiteSpace=wrap;html=1;aspect=fixed;fillColor=#B3B3B3;strokeWidth=2;strokeColor=#A9C4EB;" vertex="1" parent="1">
          <mxGeometry x="150" y="443" width="40" height="40" as="geometry" />
        </mxCell>
        <mxCell id="mxUgODkjY9jCBzV6E6Ki-128" value="" style="whiteSpace=wrap;html=1;aspect=fixed;strokeWidth=2;strokeColor=#A9C4EB;fillColor=none;" vertex="1" parent="1">
          <mxGeometry x="230" y="443" width="40" height="40" as="geometry" />
        </mxCell>
        <mxCell id="mxUgODkjY9jCBzV6E6Ki-129" value="" style="whiteSpace=wrap;html=1;aspect=fixed;strokeWidth=2;strokeColor=#A9C4EB;fillColor=none;" vertex="1" parent="1">
          <mxGeometry x="270" y="443" width="40" height="40" as="geometry" />
        </mxCell>
        <mxCell id="mxUgODkjY9jCBzV6E6Ki-130" value="" style="whiteSpace=wrap;html=1;aspect=fixed;strokeWidth=2;strokeColor=#A9C4EB;fillColor=none;" vertex="1" parent="1">
          <mxGeometry x="310" y="443" width="40" height="40" as="geometry" />
        </mxCell>
        <mxCell id="mxUgODkjY9jCBzV6E6Ki-131" value="" style="whiteSpace=wrap;html=1;aspect=fixed;strokeWidth=2;strokeColor=#A9C4EB;fillColor=none;" vertex="1" parent="1">
          <mxGeometry x="350" y="443" width="40" height="40" as="geometry" />
        </mxCell>
        <mxCell id="mxUgODkjY9jCBzV6E6Ki-132" value="" style="whiteSpace=wrap;html=1;aspect=fixed;strokeWidth=2;strokeColor=#A9C4EB;" vertex="1" parent="1">
          <mxGeometry x="390" y="443" width="40" height="40" as="geometry" />
        </mxCell>
        <mxCell id="mxUgODkjY9jCBzV6E6Ki-133" value="" style="whiteSpace=wrap;html=1;aspect=fixed;strokeWidth=2;strokeColor=#A9C4EB;" vertex="1" parent="1">
          <mxGeometry x="150" y="483" width="40" height="40" as="geometry" />
        </mxCell>
        <mxCell id="mxUgODkjY9jCBzV6E6Ki-134" value="" style="whiteSpace=wrap;html=1;aspect=fixed;strokeWidth=2;strokeColor=#A9C4EB;fillColor=none;" vertex="1" parent="1">
          <mxGeometry x="230" y="483" width="40" height="40" as="geometry" />
        </mxCell>
        <mxCell id="mxUgODkjY9jCBzV6E6Ki-135" value="" style="whiteSpace=wrap;html=1;aspect=fixed;strokeWidth=2;strokeColor=#A9C4EB;fillColor=none;" vertex="1" parent="1">
          <mxGeometry x="270" y="483" width="40" height="40" as="geometry" />
        </mxCell>
        <mxCell id="mxUgODkjY9jCBzV6E6Ki-136" value="" style="whiteSpace=wrap;html=1;aspect=fixed;strokeWidth=2;strokeColor=#A9C4EB;fillColor=none;" vertex="1" parent="1">
          <mxGeometry x="310" y="483" width="40" height="40" as="geometry" />
        </mxCell>
        <mxCell id="mxUgODkjY9jCBzV6E6Ki-137" value="" style="whiteSpace=wrap;html=1;aspect=fixed;strokeWidth=2;strokeColor=#A9C4EB;fillColor=none;" vertex="1" parent="1">
          <mxGeometry x="350" y="483" width="40" height="40" as="geometry" />
        </mxCell>
        <mxCell id="mxUgODkjY9jCBzV6E6Ki-138" value="" style="whiteSpace=wrap;html=1;aspect=fixed;strokeWidth=2;strokeColor=#A9C4EB;" vertex="1" parent="1">
          <mxGeometry x="390" y="483" width="40" height="40" as="geometry" />
        </mxCell>
        <mxCell id="mxUgODkjY9jCBzV6E6Ki-139" value="" style="whiteSpace=wrap;html=1;aspect=fixed;fillColor=#B3B3B3;strokeWidth=2;strokeColor=#A9C4EB;" vertex="1" parent="1">
          <mxGeometry x="190" y="483" width="40" height="40" as="geometry" />
        </mxCell>
        <mxCell id="mxUgODkjY9jCBzV6E6Ki-140" value="" style="whiteSpace=wrap;html=1;aspect=fixed;fillColor=#B3B3B3;strokeWidth=2;strokeColor=#A9C4EB;fontColor=#808080;" vertex="1" parent="1">
          <mxGeometry x="230" y="323" width="40" height="40" as="geometry" />
        </mxCell>
        <mxCell id="mxUgODkjY9jCBzV6E6Ki-141" value="" style="whiteSpace=wrap;html=1;aspect=fixed;fillColor=#B3B3B3;strokeWidth=2;strokeColor=#A9C4EB;fontColor=#808080;" vertex="1" parent="1">
          <mxGeometry x="270" y="363" width="40" height="40" as="geometry" />
        </mxCell>
        <mxCell id="mxUgODkjY9jCBzV6E6Ki-142" value="" style="whiteSpace=wrap;html=1;aspect=fixed;fillColor=#B3B3B3;strokeWidth=2;strokeColor=#A9C4EB;fontColor=#808080;" vertex="1" parent="1">
          <mxGeometry x="310" y="283" width="40" height="40" as="geometry" />
        </mxCell>
        <mxCell id="mxUgODkjY9jCBzV6E6Ki-143" value="" style="whiteSpace=wrap;html=1;aspect=fixed;fillColor=#B3B3B3;strokeWidth=2;strokeColor=#A9C4EB;fontColor=#808080;" vertex="1" parent="1">
          <mxGeometry x="350" y="403" width="40" height="40" as="geometry" />
        </mxCell>
        <mxCell id="mxUgODkjY9jCBzV6E6Ki-144" value="" style="whiteSpace=wrap;html=1;aspect=fixed;fillColor=#B3B3B3;strokeWidth=2;strokeColor=#A9C4EB;" vertex="1" parent="1">
          <mxGeometry x="390" y="243" width="40" height="40" as="geometry" />
        </mxCell>
        <mxCell id="mxUgODkjY9jCBzV6E6Ki-145" value="" style="endArrow=open;html=1;rounded=0;strokeWidth=3;endFill=0;strokeColor=#FF0000;endSize=10;" edge="1" parent="1">
          <mxGeometry width="50" height="50" relative="1" as="geometry">
            <mxPoint x="130" y="523" as="sourcePoint" />
            <mxPoint x="450" y="523" as="targetPoint" />
          </mxGeometry>
        </mxCell>
        <mxCell id="mxUgODkjY9jCBzV6E6Ki-146" value="" style="endArrow=open;html=1;rounded=0;strokeWidth=3;endFill=0;strokeColor=#FF0000;endSize=10;" edge="1" parent="1">
          <mxGeometry width="50" height="50" relative="1" as="geometry">
            <mxPoint x="150" y="543" as="sourcePoint" />
            <mxPoint x="150" y="223" as="targetPoint" />
          </mxGeometry>
        </mxCell>
        <mxCell id="mxUgODkjY9jCBzV6E6Ki-147" value="index" style="text;html=1;strokeColor=none;fillColor=none;align=center;verticalAlign=middle;whiteSpace=wrap;rounded=0;fontFamily=Times New Roman;fontSize=24;fontColor=#FF0000;" vertex="1" parent="1">
          <mxGeometry x="455" y="505" width="60" height="30" as="geometry" />
        </mxCell>
        <mxCell id="mxUgODkjY9jCBzV6E6Ki-148" value="value" style="text;html=1;strokeColor=none;fillColor=none;align=center;verticalAlign=middle;whiteSpace=wrap;rounded=0;fontFamily=Times New Roman;fontSize=24;fontColor=#FF0000;direction=west;" vertex="1" parent="1">
          <mxGeometry x="120" y="190" width="60" height="30" as="geometry" />
        </mxCell>
        <mxCell id="mxUgODkjY9jCBzV6E6Ki-149" value="0" style="text;html=1;strokeColor=none;fillColor=none;align=center;verticalAlign=middle;whiteSpace=wrap;rounded=0;fontFamily=Times New Roman;fontSize=24;fontColor=#FF0000;" vertex="1" parent="1">
          <mxGeometry x="160" y="523" width="20" height="30" as="geometry" />
        </mxCell>
        <mxCell id="mxUgODkjY9jCBzV6E6Ki-150" value="1" style="text;html=1;strokeColor=none;fillColor=none;align=center;verticalAlign=middle;whiteSpace=wrap;rounded=0;fontFamily=Times New Roman;fontSize=24;fontColor=#FF0000;" vertex="1" parent="1">
          <mxGeometry x="200" y="523" width="20" height="30" as="geometry" />
        </mxCell>
        <mxCell id="mxUgODkjY9jCBzV6E6Ki-151" value="2" style="text;html=1;strokeColor=none;fillColor=none;align=center;verticalAlign=middle;whiteSpace=wrap;rounded=0;fontFamily=Times New Roman;fontSize=24;fontColor=#FF0000;" vertex="1" parent="1">
          <mxGeometry x="240" y="523" width="20" height="30" as="geometry" />
        </mxCell>
        <mxCell id="mxUgODkjY9jCBzV6E6Ki-152" value="3" style="text;html=1;strokeColor=none;fillColor=none;align=center;verticalAlign=middle;whiteSpace=wrap;rounded=0;fontFamily=Times New Roman;fontSize=24;fontColor=#FF0000;" vertex="1" parent="1">
          <mxGeometry x="280" y="523" width="20" height="30" as="geometry" />
        </mxCell>
        <mxCell id="mxUgODkjY9jCBzV6E6Ki-153" value="4" style="text;html=1;strokeColor=none;fillColor=none;align=center;verticalAlign=middle;whiteSpace=wrap;rounded=0;fontFamily=Times New Roman;fontSize=24;fontColor=#FF0000;" vertex="1" parent="1">
          <mxGeometry x="320" y="523" width="20" height="30" as="geometry" />
        </mxCell>
        <mxCell id="mxUgODkjY9jCBzV6E6Ki-154" value="5" style="text;html=1;strokeColor=none;fillColor=none;align=center;verticalAlign=middle;whiteSpace=wrap;rounded=0;fontFamily=Times New Roman;fontSize=24;fontColor=#FF0000;" vertex="1" parent="1">
          <mxGeometry x="360" y="523" width="20" height="30" as="geometry" />
        </mxCell>
        <mxCell id="mxUgODkjY9jCBzV6E6Ki-155" value="6" style="text;html=1;strokeColor=none;fillColor=none;align=center;verticalAlign=middle;whiteSpace=wrap;rounded=0;fontFamily=Times New Roman;fontSize=24;fontColor=#FF0000;" vertex="1" parent="1">
          <mxGeometry x="400" y="523" width="20" height="30" as="geometry" />
        </mxCell>
        <mxCell id="mxUgODkjY9jCBzV6E6Ki-156" value="0" style="text;html=1;strokeColor=none;fillColor=none;align=center;verticalAlign=middle;whiteSpace=wrap;rounded=0;fontFamily=Times New Roman;fontSize=24;fontColor=#FF0000;" vertex="1" parent="1">
          <mxGeometry x="130" y="488" width="20" height="30" as="geometry" />
        </mxCell>
        <mxCell id="mxUgODkjY9jCBzV6E6Ki-157" value="1" style="text;html=1;strokeColor=none;fillColor=none;align=center;verticalAlign=middle;whiteSpace=wrap;rounded=0;fontFamily=Times New Roman;fontSize=24;fontColor=#FF0000;" vertex="1" parent="1">
          <mxGeometry x="130" y="448" width="20" height="30" as="geometry" />
        </mxCell>
        <mxCell id="mxUgODkjY9jCBzV6E6Ki-158" value="2" style="text;html=1;strokeColor=none;fillColor=none;align=center;verticalAlign=middle;whiteSpace=wrap;rounded=0;fontFamily=Times New Roman;fontSize=24;fontColor=#FF0000;" vertex="1" parent="1">
          <mxGeometry x="130" y="408" width="20" height="30" as="geometry" />
        </mxCell>
        <mxCell id="mxUgODkjY9jCBzV6E6Ki-159" value="3" style="text;html=1;strokeColor=none;fillColor=none;align=center;verticalAlign=middle;whiteSpace=wrap;rounded=0;fontFamily=Times New Roman;fontSize=24;fontColor=#FF0000;" vertex="1" parent="1">
          <mxGeometry x="130" y="368" width="20" height="30" as="geometry" />
        </mxCell>
        <mxCell id="mxUgODkjY9jCBzV6E6Ki-160" value="4" style="text;html=1;strokeColor=none;fillColor=none;align=center;verticalAlign=middle;whiteSpace=wrap;rounded=0;fontFamily=Times New Roman;fontSize=24;fontColor=#FF0000;" vertex="1" parent="1">
          <mxGeometry x="130" y="328" width="20" height="30" as="geometry" />
        </mxCell>
        <mxCell id="mxUgODkjY9jCBzV6E6Ki-161" value="5" style="text;html=1;strokeColor=none;fillColor=none;align=center;verticalAlign=middle;whiteSpace=wrap;rounded=0;fontFamily=Times New Roman;fontSize=24;fontColor=#FF0000;" vertex="1" parent="1">
          <mxGeometry x="130" y="288" width="20" height="30" as="geometry" />
        </mxCell>
        <mxCell id="mxUgODkjY9jCBzV6E6Ki-162" value="6" style="text;html=1;strokeColor=none;fillColor=none;align=center;verticalAlign=middle;whiteSpace=wrap;rounded=0;fontFamily=Times New Roman;fontSize=24;fontColor=#FF0000;" vertex="1" parent="1">
          <mxGeometry x="130" y="248" width="20" height="30" as="geometry" />
        </mxCell>
        <mxCell id="mxUgODkjY9jCBzV6E6Ki-165" value="" style="endArrow=classicThin;dashed=1;html=1;rounded=0;exitX=0.5;exitY=0;exitDx=0;exitDy=0;entryX=1;entryY=0.5;entryDx=0;entryDy=0;strokeWidth=3;strokeColor=#000000;dashPattern=1 1;endFill=1;" edge="1" parent="1" source="mxUgODkjY9jCBzV6E6Ki-151" target="mxUgODkjY9jCBzV6E6Ki-160">
          <mxGeometry width="50" height="50" relative="1" as="geometry">
            <mxPoint x="250" y="460" as="sourcePoint" />
            <mxPoint x="300" y="410" as="targetPoint" />
            <Array as="points">
              <mxPoint x="250" y="343" />
            </Array>
          </mxGeometry>
        </mxCell>
        <mxCell id="mxUgODkjY9jCBzV6E6Ki-166" value="&lt;i&gt;n&lt;/i&gt;" style="text;html=1;strokeColor=none;fillColor=none;align=center;verticalAlign=middle;whiteSpace=wrap;rounded=0;fontFamily=Times New Roman;fontSize=24;fontColor=#000000;" vertex="1" parent="1">
          <mxGeometry x="240" y="551" width="20" height="30" as="geometry" />
        </mxCell>
        <mxCell id="mxUgODkjY9jCBzV6E6Ki-168" value="&lt;i&gt;σ&lt;/i&gt;(&lt;i&gt;n&lt;/i&gt;)" style="text;html=1;strokeColor=none;fillColor=none;align=center;verticalAlign=middle;whiteSpace=wrap;rounded=0;fontFamily=Times New Roman;fontSize=24;fontColor=#000000;" vertex="1" parent="1">
          <mxGeometry x="95" y="327" width="20" height="30" as="geometry" />
        </mxCell>
        <mxCell id="mxUgODkjY9jCBzV6E6Ki-169" value="" style="whiteSpace=wrap;html=1;aspect=fixed;strokeWidth=2;strokeColor=#A9C4EB;fillColor=none;" vertex="1" parent="1">
          <mxGeometry x="360" y="660" width="40" height="40" as="geometry" />
        </mxCell>
        <mxCell id="mxUgODkjY9jCBzV6E6Ki-170" value="" style="whiteSpace=wrap;html=1;aspect=fixed;strokeWidth=2;strokeColor=#A9C4EB;fillColor=none;" vertex="1" parent="1">
          <mxGeometry x="400" y="660" width="40" height="40" as="geometry" />
        </mxCell>
        <mxCell id="mxUgODkjY9jCBzV6E6Ki-171" value="" style="whiteSpace=wrap;html=1;aspect=fixed;strokeWidth=2;strokeColor=#A9C4EB;fillColor=none;" vertex="1" parent="1">
          <mxGeometry x="320" y="660" width="40" height="40" as="geometry" />
        </mxCell>
        <mxCell id="mxUgODkjY9jCBzV6E6Ki-173" value="" style="whiteSpace=wrap;html=1;aspect=fixed;strokeWidth=2;strokeColor=#A9C4EB;fillColor=none;" vertex="1" parent="1">
          <mxGeometry x="400" y="700" width="40" height="40" as="geometry" />
        </mxCell>
        <mxCell id="mxUgODkjY9jCBzV6E6Ki-174" value="" style="whiteSpace=wrap;html=1;aspect=fixed;strokeWidth=2;strokeColor=#A9C4EB;fillColor=none;" vertex="1" parent="1">
          <mxGeometry x="280" y="700" width="40" height="40" as="geometry" />
        </mxCell>
        <mxCell id="mxUgODkjY9jCBzV6E6Ki-175" value="" style="whiteSpace=wrap;html=1;aspect=fixed;strokeWidth=2;strokeColor=#A9C4EB;fillColor=none;" vertex="1" parent="1">
          <mxGeometry x="320" y="700" width="40" height="40" as="geometry" />
        </mxCell>
        <mxCell id="mxUgODkjY9jCBzV6E6Ki-177" value="" style="whiteSpace=wrap;html=1;aspect=fixed;strokeWidth=2;strokeColor=#A9C4EB;fillColor=none;" vertex="1" parent="1">
          <mxGeometry x="360" y="740" width="40" height="40" as="geometry" />
        </mxCell>
        <mxCell id="mxUgODkjY9jCBzV6E6Ki-178" value="" style="whiteSpace=wrap;html=1;aspect=fixed;strokeWidth=2;strokeColor=#A9C4EB;fillColor=none;" vertex="1" parent="1">
          <mxGeometry x="280" y="740" width="40" height="40" as="geometry" />
        </mxCell>
        <mxCell id="mxUgODkjY9jCBzV6E6Ki-179" value="" style="whiteSpace=wrap;html=1;aspect=fixed;strokeWidth=2;strokeColor=#A9C4EB;fillColor=none;" vertex="1" parent="1">
          <mxGeometry x="320" y="740" width="40" height="40" as="geometry" />
        </mxCell>
        <mxCell id="mxUgODkjY9jCBzV6E6Ki-181" value="" style="whiteSpace=wrap;html=1;aspect=fixed;strokeWidth=2;strokeColor=#A9C4EB;fillColor=none;" vertex="1" parent="1">
          <mxGeometry x="360" y="780" width="40" height="40" as="geometry" />
        </mxCell>
        <mxCell id="mxUgODkjY9jCBzV6E6Ki-182" value="" style="whiteSpace=wrap;html=1;aspect=fixed;strokeWidth=2;strokeColor=#A9C4EB;fillColor=none;" vertex="1" parent="1">
          <mxGeometry x="400" y="780" width="40" height="40" as="geometry" />
        </mxCell>
        <mxCell id="mxUgODkjY9jCBzV6E6Ki-183" value="" style="whiteSpace=wrap;html=1;aspect=fixed;strokeWidth=2;strokeColor=#A9C4EB;fillColor=none;" vertex="1" parent="1">
          <mxGeometry x="280" y="780" width="40" height="40" as="geometry" />
        </mxCell>
        <mxCell id="mxUgODkjY9jCBzV6E6Ki-185" value="" style="whiteSpace=wrap;html=1;aspect=fixed;fillColor=#808080;strokeWidth=2;strokeColor=#A9C4EB;" vertex="1" parent="1">
          <mxGeometry x="360" y="700" width="40" height="40" as="geometry" />
        </mxCell>
        <mxCell id="mxUgODkjY9jCBzV6E6Ki-186" value="" style="whiteSpace=wrap;html=1;aspect=fixed;fillColor=#808080;strokeWidth=2;strokeColor=#A9C4EB;" vertex="1" parent="1">
          <mxGeometry x="400" y="740" width="40" height="40" as="geometry" />
        </mxCell>
        <mxCell id="mxUgODkjY9jCBzV6E6Ki-187" value="" style="whiteSpace=wrap;html=1;aspect=fixed;fillColor=#808080;strokeWidth=2;strokeColor=#A9C4EB;" vertex="1" parent="1">
          <mxGeometry x="280" y="660" width="40" height="40" as="geometry" />
        </mxCell>
        <mxCell id="mxUgODkjY9jCBzV6E6Ki-188" value="" style="whiteSpace=wrap;html=1;aspect=fixed;fillColor=#808080;strokeWidth=2;strokeColor=#A9C4EB;" vertex="1" parent="1">
          <mxGeometry x="320" y="780" width="40" height="40" as="geometry" />
        </mxCell>
        <mxCell id="mxUgODkjY9jCBzV6E6Ki-189" value="" style="endArrow=none;html=1;rounded=0;strokeWidth=2;" edge="1" parent="1">
          <mxGeometry width="50" height="50" relative="1" as="geometry">
            <mxPoint x="260" y="780" as="sourcePoint" />
            <mxPoint x="460" y="780" as="targetPoint" />
          </mxGeometry>
        </mxCell>
        <mxCell id="mxUgODkjY9jCBzV6E6Ki-190" value="" style="endArrow=none;html=1;rounded=0;strokeWidth=2;" edge="1" parent="1">
          <mxGeometry width="50" height="50" relative="1" as="geometry">
            <mxPoint x="260" y="740" as="sourcePoint" />
            <mxPoint x="460" y="740" as="targetPoint" />
          </mxGeometry>
        </mxCell>
        <mxCell id="mxUgODkjY9jCBzV6E6Ki-191" value="" style="endArrow=none;html=1;rounded=0;strokeWidth=2;" edge="1" parent="1">
          <mxGeometry width="50" height="50" relative="1" as="geometry">
            <mxPoint x="260" y="698.95" as="sourcePoint" />
            <mxPoint x="460" y="699" as="targetPoint" />
          </mxGeometry>
        </mxCell>
        <mxCell id="mxUgODkjY9jCBzV6E6Ki-192" value="D&lt;sup&gt;#&lt;/sup&gt;" style="text;html=1;strokeColor=none;fillColor=none;align=center;verticalAlign=middle;whiteSpace=wrap;rounded=0;fontFamily=Times New Roman;fontSize=24;fontColor=#000000;" vertex="1" parent="1">
          <mxGeometry x="216" y="785" width="60" height="30" as="geometry" />
        </mxCell>
        <mxCell id="mxUgODkjY9jCBzV6E6Ki-193" value="E" style="text;html=1;strokeColor=none;fillColor=none;align=center;verticalAlign=middle;whiteSpace=wrap;rounded=0;fontFamily=Times New Roman;fontSize=24;fontColor=#000000;" vertex="1" parent="1">
          <mxGeometry x="210" y="745" width="60" height="30" as="geometry" />
        </mxCell>
        <mxCell id="mxUgODkjY9jCBzV6E6Ki-194" value="F" style="text;html=1;strokeColor=none;fillColor=none;align=center;verticalAlign=middle;whiteSpace=wrap;rounded=0;fontFamily=Times New Roman;fontSize=24;fontColor=#000000;" vertex="1" parent="1">
          <mxGeometry x="210" y="705" width="60" height="30" as="geometry" />
        </mxCell>
        <mxCell id="mxUgODkjY9jCBzV6E6Ki-195" value="F&lt;sup&gt;#&lt;/sup&gt;" style="text;html=1;strokeColor=none;fillColor=none;align=center;verticalAlign=middle;whiteSpace=wrap;rounded=0;fontFamily=Times New Roman;fontSize=24;fontColor=#000000;" vertex="1" parent="1">
          <mxGeometry x="210" y="665" width="70" height="35" as="geometry" />
        </mxCell>
        <mxCell id="mxUgODkjY9jCBzV6E6Ki-196" value="C&lt;sup style=&quot;border-color: var(--border-color);&quot;&gt;#&lt;/sup&gt;&amp;nbsp;=" style="text;html=1;strokeColor=none;fillColor=none;align=center;verticalAlign=middle;whiteSpace=wrap;rounded=0;fontFamily=Times New Roman;fontSize=24;fontColor=#000000;" vertex="1" parent="1">
          <mxGeometry x="648" y="475" width="35" height="30" as="geometry" />
        </mxCell>
        <mxCell id="mxUgODkjY9jCBzV6E6Ki-198" value="tonic&lt;br&gt;degree" style="text;html=1;strokeColor=none;fillColor=none;align=center;verticalAlign=middle;whiteSpace=wrap;rounded=0;fontFamily=Times New Roman;fontSize=18;fontColor=#000000;" vertex="1" parent="1">
          <mxGeometry x="565" y="480" width="51" height="30" as="geometry" />
        </mxCell>
        <mxCell id="mxUgODkjY9jCBzV6E6Ki-199" value="&lt;sub&gt;5&lt;/sub&gt;" style="text;html=1;strokeColor=none;fillColor=none;align=center;verticalAlign=middle;whiteSpace=wrap;rounded=0;fontFamily=Times New Roman;fontSize=24;fontColor=#000000;" vertex="1" parent="1">
          <mxGeometry x="654" y="481" width="18" height="30" as="geometry" />
        </mxCell>
        <mxCell id="mxUgODkjY9jCBzV6E6Ki-200" value="&lt;sub&gt;5&lt;/sub&gt;" style="text;html=1;strokeColor=none;fillColor=none;align=center;verticalAlign=middle;whiteSpace=wrap;rounded=0;fontFamily=Times New Roman;fontSize=24;fontColor=#000000;" vertex="1" parent="1">
          <mxGeometry x="242" y="796" width="18" height="30" as="geometry" />
        </mxCell>
        <mxCell id="mxUgODkjY9jCBzV6E6Ki-201" value="&lt;sub&gt;5&lt;/sub&gt;" style="text;html=1;strokeColor=none;fillColor=none;align=center;verticalAlign=middle;whiteSpace=wrap;rounded=0;fontFamily=Times New Roman;fontSize=24;fontColor=#000000;" vertex="1" parent="1">
          <mxGeometry x="242" y="750" width="18" height="30" as="geometry" />
        </mxCell>
        <mxCell id="mxUgODkjY9jCBzV6E6Ki-202" value="&lt;sub&gt;5&lt;/sub&gt;" style="text;html=1;strokeColor=none;fillColor=none;align=center;verticalAlign=middle;whiteSpace=wrap;rounded=0;fontFamily=Times New Roman;fontSize=24;fontColor=#000000;" vertex="1" parent="1">
          <mxGeometry x="239" y="710" width="18" height="30" as="geometry" />
        </mxCell>
        <mxCell id="mxUgODkjY9jCBzV6E6Ki-203" value="&lt;sub&gt;5&lt;/sub&gt;" style="text;html=1;strokeColor=none;fillColor=none;align=center;verticalAlign=middle;whiteSpace=wrap;rounded=0;fontFamily=Times New Roman;fontSize=24;fontColor=#000000;" vertex="1" parent="1">
          <mxGeometry x="239" y="676" width="18" height="30" as="geometry" />
        </mxCell>
      </root>
    </mxGraphModel>
  </diagram>
</mxfile>
